<?xml version="1.0" encoding="UTF-8" standalone="no"?>
<!-- Created with Inkscape (http://www.inkscape.org/) -->

<svg
   xmlns:dc="http://purl.org/dc/elements/1.1/"
   xmlns:cc="http://creativecommons.org/ns#"
   xmlns:rdf="http://www.w3.org/1999/02/22-rdf-syntax-ns#"
   xmlns:svg="http://www.w3.org/2000/svg"
   xmlns="http://www.w3.org/2000/svg"
   xmlns:sodipodi="http://sodipodi.sourceforge.net/DTD/sodipodi-0.dtd"
   xmlns:inkscape="http://www.inkscape.org/namespaces/inkscape"
   width="210mm"
   height="297mm"
   viewBox="0 0 744.09448819 1052.3622047"
   id="svg2"
   version="1.1"
   inkscape:version="0.91 r13725"
   sodipodi:docname="logo.svg">
  <defs
     id="defs4" />
  <sodipodi:namedview
     id="base"
     pagecolor="#ffffff"
     bordercolor="#666666"
     borderopacity="1.0"
     inkscape:pageopacity="0.0"
     inkscape:pageshadow="2"
     inkscape:zoom="1"
     inkscape:cx="191.54023"
     inkscape:cy="423.42684"
     inkscape:document-units="px"
     inkscape:current-layer="layer1"
     showgrid="false"
     showguides="false"
     inkscape:guide-bbox="true"
     inkscape:snap-bbox="true"
     inkscape:snap-bbox-midpoints="true"
     inkscape:bbox-nodes="true"
     inkscape:bbox-paths="false"
     inkscape:snap-global="false"
     inkscape:snap-page="false"
     inkscape:snap-bbox-edge-midpoints="true"
     inkscape:object-nodes="true"
     inkscape:object-paths="true"
     inkscape:window-width="1918"
     inkscape:window-height="1061"
     inkscape:window-x="0"
     inkscape:window-y="17"
     inkscape:window-maximized="0">
    <sodipodi:guide
       position="247.99245,678.11542"
       orientation="1,0"
       id="guide3336" />
    <sodipodi:guide
       position="247.99245,605.58646"
       orientation="0,1"
       id="guide3338" />
    <sodipodi:guide
       position="194.75,655.56251"
       orientation="0,1"
       id="guide3346" />
    <sodipodi:guide
       position="197.96875,660.21876"
       orientation="1,0"
       id="guide3348" />
    <sodipodi:guide
       position="298.10547,555.58595"
       orientation="0,1"
       id="guide3350" />
    <sodipodi:guide
       position="297.99219,555.32814"
       orientation="1,0"
       id="guide3352" />
    <sodipodi:guide
       position="264,718.86564"
       orientation="0,1"
       id="guide3494" />
  </sodipodi:namedview>
  <metadata
     id="metadata7">
    <rdf:RDF>
      <cc:Work
         rdf:about="">
        <dc:format>image/svg+xml</dc:format>
        <dc:type
           rdf:resource="http://purl.org/dc/dcmitype/StillImage" />
        <dc:title />
      </cc:Work>
    </rdf:RDF>
  </metadata>
  <g
     inkscape:label="Layer 1"
     inkscape:groupmode="layer"
     id="layer1">
    <rect
       style="fill:#ffffff;fill-opacity:1;stroke:none;stroke-width:6;stroke-miterlimit:4;stroke-dasharray:none;stroke-opacity:1"
       id="rect4403"
       width="279.00195"
       height="272.62842"
       x="343.02405"
       y="492.42343"
       rx="2"
       ry="2"
       inkscape:export-xdpi="150"
       inkscape:export-ydpi="150" />
    <rect
       y="516.43286"
       x="367.59479"
       height="224.60954"
       width="229.86047"
       id="rect4399"
       style="fill:#ffffff;stroke:#dedede;stroke-width:4;stroke-miterlimit:4;stroke-dasharray:none;stroke-opacity:1;fill-opacity:1"
       inkscape:export-xdpi="150"
       inkscape:export-ydpi="150" />
    <path
       style="fill:#ff0000;fill-rule:evenodd;stroke:none;stroke-width:1px;stroke-linecap:butt;stroke-linejoin:miter;stroke-opacity:1;fill-opacity:1"
       d="m 117.85924,288.6216 0,60.12497 c 34.15252,1.76777 33.82584,0.89888 51.45748,-1.5026 -5.90497,16.6044 -15.89585,17.17365 -62.31754,15.68913 -1.18612,0.27354 0,-53.09855 0,-79.64783 l -18.631981,0.0238 0.0237,99.97605 99.999741,5.1e-4 0,-99.97656 -14.48126,-0.0238 c -16.53046,6.91127 -38.61792,5.33633 -56.05014,5.33633 z"
       id="path3400"
       inkscape:connector-curvature="0"
       sodipodi:nodetypes="ccccccccccc" />
    <g
       id="g3547"
       style="fill:#ff0000;fill-opacity:1;stroke:none">
      <path
         style="fill:#ff0000;fill-rule:evenodd;stroke:none;stroke-width:1px;stroke-linecap:butt;stroke-linejoin:miter;stroke-opacity:1;fill-opacity:1"
         d="m 247.99228,383.28563 -50.00417,0 0,-34.53906 7.24947,-2.65166 c -1.65317,-12.59833 -1.67025,-12.59833 0,-25.36746 l -7.24529,-2.89235 -0.004,-34.52603 50.00417,0"
         id="path3496"
         inkscape:connector-curvature="0"
         sodipodi:nodetypes="cccccccc" />
      <path
         sodipodi:nodetypes="cccccccc"
         inkscape:connector-curvature="0"
         id="path3498"
         d="m 247.48802,383.28563 50.00417,0 0,-34.53906 -7.24947,-2.65166 c 1.65317,-12.59833 1.67025,-12.59833 0,-25.36746 l 7.24529,-2.89235 0.004,-34.52603 -50.00417,0"
         style="fill:#ff0000;fill-rule:evenodd;stroke:none;stroke-width:1px;stroke-linecap:butt;stroke-linejoin:miter;stroke-opacity:1;fill-opacity:1" />
    </g>
    <rect
       ry="10.155789"
       rx="10.155789"
       style="fill:#dbdee3;stroke:#000000;stroke-width:1.1803745"
       id="rect3487"
       width="259.57639"
       height="261.2457"
       x="360.23682"
       y="148.86487" />
    <rect
       y="150.86862"
       x="362.22775"
       height="257.23819"
       width="255.59448"
       id="rect3485"
       style="fill:#dbdee3;stroke:#000000;stroke-width:1.16226757"
       rx="10"
       ry="10" />
    <rect
       style="fill:#e3dbdb"
       id="rect3342"
       width="100"
       height="100"
       x="197.99245"
       y="396.77576" />
    <rect
       y="431.32574"
       x="197.99245"
       height="30.9"
       width="99.999741"
       id="rect3358"
       style="fill:#ffaaaa" />
    <rect
       style="fill:#ffaaaa"
       id="rect3360"
       width="99.999741"
       height="30.9"
       x="396.77588"
       y="-228.86874"
       transform="matrix(0,1,-1,0,0,0)" />
    <rect
       transform="matrix(0,1,-1,0,0,0)"
       y="-297.99219"
       x="396.77588"
       height="30.9"
       width="99.999741"
       id="rect3378"
       style="fill:#ffaaaa" />
    <rect
       style="fill:#f6ffd5"
       id="rect3380"
       width="99.999741"
       height="15.45"
       x="396.77588"
       y="-297.99219"
       transform="matrix(0,1,-1,0,0,0)" />
    <rect
       y="481.32626"
       x="197.96875"
       height="15.45"
       width="99.999741"
       id="rect3384"
       style="fill:#f6ffd5" />
    <rect
       transform="matrix(0,1,-1,0,0,0)"
       y="-297.99219"
       x="396.77588"
       height="15.45"
       width="99.999741"
       id="rect3386"
       style="fill:#f6ffd5" />
    <rect
       transform="matrix(0,1,-1,0,0,0)"
       y="-213.41875"
       x="396.77588"
       height="15.45"
       width="99.999741"
       id="rect3396"
       style="fill:#f6ffd5" />
    <path
       style="fill:#ffff00;stroke:none;fill-opacity:1"
       d="m 143.3909,302.15643 21,0 c 2.77,0 5,2.23 5,5 l 0,17.125 c 0,6.3885 -5.61209,9.125 -9.69086,9.125 l -16.30914,0 c -2.77,0 -5,-2.23 -5,-5 l 0,-21.25 c 0,-2.77 2.23,-5 5,-5 z"
       id="rect3392"
       inkscape:connector-curvature="0"
       sodipodi:nodetypes="sssssssss" />
    <rect
       style="fill:#dbdee3;stroke:#000000;stroke-width:1.00960267"
       id="rect3483"
       width="222.02193"
       height="223.44972"
       x="379.01404"
       y="167.76285" />
    <g
       id="g3411"
       transform="translate(298,0)">
      <path
         style="fill:none;fill-rule:evenodd;stroke:#000000;stroke-width:1px;stroke-linecap:butt;stroke-linejoin:miter;stroke-opacity:1"
         d="m 247.99228,383.28563 -50.00417,0 0,-34.53906 7.24947,-2.65166 0,-25.36746 -7.24529,-2.89235 -0.004,-34.52603 50.00417,0"
         id="path3413"
         inkscape:connector-curvature="0"
         sodipodi:nodetypes="cccccccc" />
      <rect
         style="fill:none;stroke:#000000"
         id="rect3415"
         width="31"
         height="31.25"
         x="232.5"
         y="317.87158"
         rx="5"
         ry="5" />
      <path
         sodipodi:nodetypes="cccccccc"
         inkscape:connector-curvature="0"
         id="path3417"
         d="m 247.98802,383.28563 50.00417,0 0,-34.53906 -7.24947,-2.65166 0,-25.36746 7.24529,-2.89235 0.004,-34.52603 -50.00417,0"
         style="fill:none;fill-rule:evenodd;stroke:#000000;stroke-width:1px;stroke-linecap:butt;stroke-linejoin:miter;stroke-opacity:1" />
    </g>
    <g
       id="g3419"
       transform="translate(298,0)">
      <rect
         ry="5"
         rx="5"
         y="302.03513"
         x="138.3909"
         height="31.25"
         width="31"
         id="rect3421"
         style="fill:none;stroke:#000000" />
      <path
         style="fill:none;fill-rule:evenodd;stroke:#000000;stroke-width:1px;stroke-linecap:butt;stroke-linejoin:miter;stroke-opacity:1"
         d="m 119.27345,288.6216 0,60.12497 c 17.88906,0 50.28555,2.90148 53.66719,0 -0.28883,23.258 -40.41837,18.81107 -69.12344,19.06253 l 0,-84.52383 -15.450001,0.0238 0.0237,99.97605 99.999741,5.1e-4 0,-99.97656 -15.45001,-0.0238 c -3.74605,5.45881 -35.36786,5.33633 -53.66718,5.33633"
         id="path3423"
         inkscape:connector-curvature="0"
         sodipodi:nodetypes="ccccccccccc" />
    </g>
    <g
       transform="matrix(0,1,-1,0,769.66647,-23.1928)"
       id="g3425">
      <path
         sodipodi:nodetypes="cccccccc"
         inkscape:connector-curvature="0"
         id="path3427"
         d="m 247.99228,383.28563 -50.00417,0 0,-34.53906 7.24947,-2.65166 0,-25.36746 -7.24529,-2.89235 -0.004,-34.52603 50.00417,0"
         style="fill:none;fill-rule:evenodd;stroke:#000000;stroke-width:1px;stroke-linecap:butt;stroke-linejoin:miter;stroke-opacity:1" />
      <rect
         ry="5"
         rx="5"
         y="317.87158"
         x="232.5"
         height="31.25"
         width="31"
         id="rect3429"
         style="fill:none;stroke:#000000" />
      <path
         style="fill:none;fill-rule:evenodd;stroke:#000000;stroke-width:1px;stroke-linecap:butt;stroke-linejoin:miter;stroke-opacity:1"
         d="m 247.98802,383.28563 50.00417,0 0,-34.53906 -7.24947,-2.65166 0,-25.36746 7.24529,-2.89235 0.004,-34.52603 -50.00417,0"
         id="path3431"
         inkscape:connector-curvature="0"
         sodipodi:nodetypes="cccccccc" />
    </g>
    <g
       transform="matrix(-1,0,0,1,684.35927,-108.5)"
       id="g3433">
      <rect
         style="fill:none;stroke:#000000"
         id="rect3435"
         width="31"
         height="31.25"
         x="138.3909"
         y="302.03513"
         rx="5"
         ry="5" />
      <path
         sodipodi:nodetypes="ccccccccccc"
         inkscape:connector-curvature="0"
         id="path3437"
         d="m 119.27345,288.6216 0,60.12497 c 17.88906,0 50.28555,2.90148 53.66719,0 -0.28883,23.258 -40.41837,18.81107 -69.12344,19.06253 l 0,-84.52383 -15.450001,0.0238 0.0237,99.97605 99.999741,5.1e-4 0,-99.97656 -15.45001,-0.0238 c -3.74605,5.45881 -35.36786,5.33633 -53.66718,5.33633"
         style="fill:none;fill-rule:evenodd;stroke:#000000;stroke-width:1px;stroke-linecap:butt;stroke-linejoin:miter;stroke-opacity:1" />
    </g>
    <rect
       y="271.29507"
       x="481.8847"
       height="16.385292"
       width="16.280594"
       id="rect3489"
       style="fill:#dbdee3;stroke:#000000;stroke-width:0.07403292" />
    <rect
       style="fill:#ffff00;stroke:none;fill-opacity:1"
       id="rect3364"
       width="31"
       height="31.25"
       x="232.5"
       y="317.87158"
       rx="10"
       ry="10" />
    <path
       sodipodi:nodetypes="ccccccccccc"
       inkscape:connector-curvature="0"
       id="path4363"
       d="m 268.00015,182.28108 0,60.12497 c -34.15252,1.76777 -33.82584,0.89888 -51.45748,-1.5026 5.90497,16.6044 15.89585,17.17365 62.31754,15.68913 1.18612,0.27354 0,-53.09855 0,-79.64783 l 18.63198,0.0238 -0.0237,99.97605 -99.99974,5.1e-4 0,-99.97656 14.48126,-0.0238 c 16.53046,6.91127 38.61792,5.33633 56.05014,5.33633 z"
       style="fill:#ff0000;fill-opacity:1;fill-rule:evenodd;stroke:none;stroke-width:1px;stroke-linecap:butt;stroke-linejoin:miter;stroke-opacity:1" />
    <g
       style="fill:#ff0000;fill-opacity:1;stroke:none"
       id="g4365"
       transform="matrix(0,1,1,0,-195.17811,-20.78332)">
      <path
         sodipodi:nodetypes="cccccccc"
         inkscape:connector-curvature="0"
         id="path4367"
         d="m 247.99228,383.28563 -50.00417,0 0,-34.53906 7.24947,-2.65166 c -1.65317,-12.59833 -1.67025,-12.59833 0,-25.36746 l -7.24529,-2.89235 -0.004,-34.52603 50.00417,0"
         style="fill:#ff0000;fill-opacity:1;fill-rule:evenodd;stroke:none;stroke-width:1px;stroke-linecap:butt;stroke-linejoin:miter;stroke-opacity:1" />
      <path
         style="fill:#ff0000;fill-opacity:1;fill-rule:evenodd;stroke:none;stroke-width:1px;stroke-linecap:butt;stroke-linejoin:miter;stroke-opacity:1"
         d="m 247.48802,383.28563 50.00417,0 0,-34.53906 -7.24947,-2.65166 c 1.65317,-12.59833 1.67025,-12.59833 0,-25.36746 l 7.24529,-2.89235 0.004,-34.52603 -50.00417,0"
         id="path4369"
         inkscape:connector-curvature="0"
         sodipodi:nodetypes="cccccccc" />
    </g>
    <path
       sodipodi:nodetypes="sssssssss"
       inkscape:connector-curvature="0"
       id="path4371"
       d="m 242.46849,195.81591 -21,0 c -2.77,0 -5,2.23 -5,5 l 0,17.125 c 0,6.3885 5.61209,9.125 9.69086,9.125 l 16.30914,0 c 2.77,0 5,-2.23 5,-5 l 0,-21.25 c 0,-2.77 -2.23,-5 -5,-5 z"
       style="fill:#ffff00;fill-opacity:1;stroke:none" />
    <rect
       ry="10"
       rx="10"
       y="122.23439"
       x="211.65605"
       height="31.25"
       width="31"
       id="rect4373"
       style="fill:#ffff00;fill-opacity:1;stroke:none"
       transform="matrix(0,1,1,0,0,0)" />
    <g
       id="g4407"
       style="fill:#000000;fill-opacity:1"
       inkscape:export-xdpi="150"
       inkscape:export-ydpi="150">
      <path
         style="fill:#000000;fill-opacity:1;fill-rule:evenodd;stroke:none;stroke-width:1px;stroke-linecap:butt;stroke-linejoin:miter;stroke-opacity:1"
         d="m 407.85924,636.6216 0,60.12497 c 34.15252,1.76777 33.82584,0.89888 51.45748,-1.5026 -5.90497,16.6044 -15.89585,17.17365 -62.31754,15.68913 -1.18612,0.27354 0,-53.09855 0,-79.64783 l -18.63198,0.0238 0.0237,99.97605 99.99974,5.1e-4 0,-99.97656 -14.48126,-0.0238 c -16.53046,6.91127 -38.61792,5.33633 -56.05014,5.33633 z"
         id="path4375"
         inkscape:connector-curvature="0"
         sodipodi:nodetypes="ccccccccccc" />
      <g
         transform="translate(290,348)"
         id="g4377"
         style="fill:#000000;fill-opacity:1;stroke:none">
        <path
           style="fill:#000000;fill-opacity:1;fill-rule:evenodd;stroke:none;stroke-width:1px;stroke-linecap:butt;stroke-linejoin:miter;stroke-opacity:1"
           d="m 247.99228,383.28563 -50.00417,0 0,-34.53906 7.24947,-2.65166 c -1.65317,-12.59833 -1.67025,-12.59833 0,-25.36746 l -7.24529,-2.89235 -0.004,-34.52603 50.00417,0"
           id="path4379"
           inkscape:connector-curvature="0"
           sodipodi:nodetypes="cccccccc" />
        <path
           sodipodi:nodetypes="cccccccc"
           inkscape:connector-curvature="0"
           id="path4381"
           d="m 247.48802,383.28563 50.00417,0 0,-34.53906 -7.24947,-2.65166 c 1.65317,-12.59833 1.67025,-12.59833 0,-25.36746 l 7.24529,-2.89235 0.004,-34.52603 -50.00417,0"
           style="fill:#000000;fill-opacity:1;fill-rule:evenodd;stroke:none;stroke-width:1px;stroke-linecap:butt;stroke-linejoin:miter;stroke-opacity:1" />
      </g>
      <path
         sodipodi:nodetypes="ccccccccccc"
         inkscape:connector-curvature="0"
         id="path4387"
         d="m 558.00015,530.28108 0,60.12497 c -34.15252,1.76777 -33.82584,0.89888 -51.45748,-1.5026 5.90497,16.6044 15.89585,17.17365 62.31754,15.68913 1.18612,0.27354 0,-53.09855 0,-79.64783 l 18.63198,0.0238 -0.0237,99.97605 -99.99974,5.1e-4 0,-99.97656 14.48126,-0.0238 c 16.53046,6.91127 38.61792,5.33633 56.05014,5.33633 z"
         style="fill:#000000;fill-opacity:1;fill-rule:evenodd;stroke:none;stroke-width:1px;stroke-linecap:butt;stroke-linejoin:miter;stroke-opacity:1" />
      <g
         style="fill:#000000;fill-opacity:1;stroke:none"
         id="g4389"
         transform="matrix(0,1,1,0,94.821889,327.21668)">
        <path
           sodipodi:nodetypes="cccccccc"
           inkscape:connector-curvature="0"
           id="path4391"
           d="m 247.99228,383.28563 -50.00417,0 0,-34.53906 7.24947,-2.65166 c -1.65317,-12.59833 -1.67025,-12.59833 0,-25.36746 l -7.24529,-2.89235 -0.004,-34.52603 50.00417,0"
           style="fill:#000000;fill-opacity:1;fill-rule:evenodd;stroke:none;stroke-width:1px;stroke-linecap:butt;stroke-linejoin:miter;stroke-opacity:1" />
        <path
           style="fill:#000000;fill-opacity:1;fill-rule:evenodd;stroke:none;stroke-width:1px;stroke-linecap:butt;stroke-linejoin:miter;stroke-opacity:1"
           d="m 247.48802,383.28563 50.00417,0 0,-34.53906 -7.24947,-2.65166 c 1.65317,-12.59833 1.67025,-12.59833 0,-25.36746 l 7.24529,-2.89235 0.004,-34.52603 -50.00417,0"
           id="path4393"
           inkscape:connector-curvature="0"
           sodipodi:nodetypes="cccccccc" />
      </g>
    </g>
    <g
       id="g4418"
       style="fill:#ffffff;fill-opacity:1"
       inkscape:export-xdpi="150"
       inkscape:export-ydpi="150">
      <path
         style="fill:#ffffff;fill-opacity:1;stroke:none"
         d="m 433.3909,650.15643 21,0 c 2.77,0 5,2.23 5,5 l 0,17.125 c 0,6.3885 -5.61209,9.125 -9.69086,9.125 l -16.30914,0 c -2.77,0 -5,-2.23 -5,-5 l 0,-21.25 c 0,-2.77 2.23,-5 5,-5 z"
         id="path4383"
         inkscape:connector-curvature="0"
         sodipodi:nodetypes="sssssssss"
         inkscape:export-xdpi="150"
         inkscape:export-ydpi="150" />
      <rect
         style="fill:#ffffff;fill-opacity:1;stroke:none"
         id="rect4385"
         width="31"
         height="31.25"
         x="522.5"
         y="665.87158"
         rx="10"
         ry="10"
         inkscape:export-xdpi="150"
         inkscape:export-ydpi="150" />
      <path
         sodipodi:nodetypes="sssssssss"
         inkscape:connector-curvature="0"
         id="path4395"
         d="m 532.46849,543.81591 -21,0 c -2.77,0 -5,2.23 -5,5 l 0,17.125 c 0,6.3885 5.61209,9.125 9.69086,9.125 l 16.30914,0 c 2.77,0 5,-2.23 5,-5 l 0,-21.25 c 0,-2.77 -2.23,-5 -5,-5 z"
         style="fill:#ffffff;fill-opacity:1;stroke:none"
         inkscape:export-xdpi="150"
         inkscape:export-ydpi="150" />
      <rect
         ry="10"
         rx="10"
         y="412.23438"
         x="559.65607"
         height="31.25"
         width="31"
         id="rect4397"
         style="fill:#ffffff;fill-opacity:1;stroke:none"
         transform="matrix(0,1,1,0,0,0)"
         inkscape:export-xdpi="150"
         inkscape:export-ydpi="150" />
    </g>
    <rect
       style="fill:#00191f;fill-opacity:1;stroke:#ffffff;stroke-width:3;stroke-miterlimit:4;stroke-dasharray:none;stroke-opacity:1"
       id="rect4194"
       width="49.497475"
       height="1.4142135"
       x="236.17366"
       y="868.51447"
       rx="10"
       ry="1.4142135" />
  </g>
</svg>
